<?xml version="1.0" encoding="UTF-8" standalone="no"?>
<svg
   xmlns:dc="http://purl.org/dc/elements/1.1/"
   xmlns:cc="http://creativecommons.org/ns#"
   xmlns:rdf="http://www.w3.org/1999/02/22-rdf-syntax-ns#"
   xmlns:svg="http://www.w3.org/2000/svg"
   xmlns="http://www.w3.org/2000/svg"
   xmlns:sodipodi="http://sodipodi.sourceforge.net/DTD/sodipodi-0.dtd"
   xmlns:inkscape="http://www.inkscape.org/namespaces/inkscape"
   xml:space="preserve"
   viewBox="19 19 142.80556 142.80556"
   height="194"
   width="194"
   y="0px"
   x="0px"
   id="Layer_1"
   version="1.1"
   sodipodi:docname="tsukuyomi-icon-1.svg"
   inkscape:version="0.92.3 (2405546, 2018-03-11)"
   inkscape:export-filename="C:\Users\ubnt-intrepid\Dropbox\icon\tsukuyomi\logo\tsukuyomi-icon.png"
   inkscape:export-xdpi="345.69"
   inkscape:export-ydpi="345.69"><metadata
     id="metadata8"><rdf:RDF><cc:Work
         rdf:about=""><dc:format>image/svg+xml</dc:format><dc:type
           rdf:resource="http://purl.org/dc/dcmitype/StillImage" /><dc:title /></cc:Work></rdf:RDF></metadata><defs
     id="defs6"><filter
       style="color-interpolation-filters:sRGB"
       inkscape:label="Cross Blur"
       id="filter863"><feColorMatrix
         in="SourceGraphic"
         values="1 0 0 0 0 0 1 0 0 0 0 0 1 0 0 -0.2125 -0.7154 -0.0721 1 0 "
         result="colormatrix"
         id="feColorMatrix853" /><feComposite
         in="SourceGraphic"
         in2="colormatrix"
         operator="arithmetic"
         k2="1"
         k3="0"
         k4="0"
         result="composite"
         id="feComposite855"
         k1="0" /><feGaussianBlur
         stdDeviation="5 0.01"
         result="blur1"
         id="feGaussianBlur857" /><feGaussianBlur
         in="composite"
         stdDeviation="0.01 5"
         result="blur2"
         id="feGaussianBlur859" /><feBlend
         in="blur2"
         in2="blur1"
         mode="darken"
         result="blend"
         id="feBlend861" /></filter></defs><sodipodi:namedview
     pagecolor="#ffffff"
     bordercolor="#666666"
     borderopacity="1"
     objecttolerance="10"
     gridtolerance="10"
     guidetolerance="10"
     inkscape:pageopacity="0"
     inkscape:pageshadow="2"
     inkscape:window-width="1920"
     inkscape:window-height="1027"
     id="namedview4"
     showgrid="true"
     inkscape:snap-global="false"
     inkscape:zoom="4"
     inkscape:cx="44.58462"
     inkscape:cy="100.06014"
     inkscape:window-x="-8"
     inkscape:window-y="-8"
     inkscape:window-maximized="1"
     inkscape:current-layer="Layer_1"
     showguides="false"><inkscape:grid
       type="xygrid"
       id="grid815"
       units="mm"
       spacingx="0.55643045"
       spacingy="0.55643045"
       color="#ff3f35"
       opacity="0.1254902"
       dotted="false" /></sodipodi:namedview><rect
     style="fill:#2f1c15;fill-opacity:1;stroke-width:0.73469108"
     id="rect826"
     width="142.80556"
     height="142.80556"
     x="19"
     y="19" /><path
     style="fill:#f1ecd3;fill-opacity:1;stroke-width:1.10550618"
     id="path825"
     sodipodi:type="arc"
     sodipodi:cx="90.402779"
     sodipodi:cy="90.402779"
     sodipodi:rx="44.166668"
     sodipodi:ry="44.166668"
     sodipodi:start="2.3972097"
     sodipodi:end="2.3510981"
     sodipodi:open="true"
     d="m 57.917925,120.3265 a 44.166668,44.166668 0 0 1 2.188651,-62.061467 44.166668,44.166668 0 0 1 62.082564,1.473084 44.166668,44.166668 0 0 1 -0.75732,62.095423 44.166668,44.166668 0 0 1 -62.100024,-0.0414"
     inkscape:export-xdpi="345.69"
     inkscape:export-ydpi="345.69" /><path
     style="fill:#b57357;fill-opacity:1;stroke-width:1"
     d="m 90.405653,38.069879 c -0.524,0 -1.011319,0.270983 -1.285319,0.715983 l -2.72016,4.395101 c -0.428,0.035 -0.856006,0.07808 -1.281006,0.125081 l -3.522407,-3.779758 c -0.357,-0.382 -0.887336,-0.552443 -1.400336,-0.451443 -0.515,0.103 -0.938419,0.462644 -1.12142,0.954644 l -1.805772,4.827854 c -0.418,0.12 -0.832063,0.248119 -1.245063,0.378119 l -4.183757,-3.012017 c -0.424999,-0.307 -0.978158,-0.37165 -1.462158,-0.16965 -0.483,0.2 -0.830392,0.638486 -0.914387,1.154486 l -0.829564,5.090956 c -0.383999,0.199 -0.763984,0.403468 -1.142984,0.612468 L 62.797174,46.77238 c -0.477,-0.218 -1.03391,-0.174107 -1.46791,0.117893 -0.436,0.289999 -0.689976,0.788197 -0.669976,1.311198 l 0.179715,5.165717 c -0.334,0.267 -0.665025,0.539185 -0.992025,0.815185 l -5.030572,-1.186116 c -0.511,-0.119001 -1.047589,0.034 -1.417588,0.403998 -0.372001,0.371 -0.522561,0.905151 -0.402561,1.416151 l 1.184679,5.03201 c -0.275,0.325995 -0.546748,0.656587 -0.813748,0.990587 l -5.165717,-0.179715 c -0.521001,-0.015 -1.020198,0.233976 -1.311198,0.669976 -0.292,0.434 -0.334893,0.989909 -0.117893,1.46791 l 2.139323,4.695583 c -0.208,0.377 -0.413468,0.756985 -0.612468,1.142986 l -5.090956,0.828125 c -0.517,0.084 -0.952049,0.430388 -1.153049,0.914387 -0.2,0.485 -0.135349,1.037159 0.169651,1.462158 l 3.010579,4.18232 c -0.131,0.412999 -0.258119,0.8285 -0.378119,1.2465 l -4.827854,1.804335 c -0.49,0.183 -0.851206,0.607857 -0.953206,1.122857 -0.102,0.514 0.06988,1.042336 0.45288,1.400336 l 3.776883,3.522411 c -0.047,0.425 -0.08908,0.85256 -0.125081,1.27956 l -4.393663,2.72016 c -0.445,0.275 -0.715984,0.76032 -0.715984,1.28532 0,0.525 0.270984,1.01132 0.715984,1.28532 l 4.393663,2.72016 c 0.036,0.428 0.07808,0.85457 0.125081,1.27957 l -3.776883,3.52385 c -0.383,0.357 -0.55488,0.887328 -0.45288,1.400328 0.102,0.515 0.463206,0.93742 0.953206,1.12142 l 4.827854,1.80434 c 0.12,0.418 0.247119,0.8335 0.378119,1.2465 l -3.010579,4.18375 c -0.306,0.426 -0.370651,0.97772 -0.169651,1.46072 0.201,0.485 0.637487,0.83139 1.154487,0.91439 l 5.089518,0.82813 c 0.199,0.386 0.402468,0.76542 0.612468,1.14442 l -2.139323,4.69415 c -0.218,0.477 -0.174107,1.03191 0.117893,1.46791 0.291999,0.437 0.790197,0.69097 1.311198,0.66998 l 5.162841,-0.17972 c 0.269,0.336 0.540623,0.66503 0.816624,0.99202 l -1.184679,5.03202 c -0.12,0.50999 0.03056,1.0437 0.402561,1.4147 0.369,0.37301 0.906588,0.52113 1.417588,0.40113 l 5.030572,-1.18468 c 0.327,0.278 0.658025,0.54775 0.992025,0.81375 l -0.179715,5.16715 c -0.02,0.523 0.233976,1.0192 0.669976,1.3112 0.434,0.291 0.99091,0.33446 1.46791,0.11645 l 4.694146,-2.13788 c 0.377999,0.21 0.757985,0.41347 1.142984,0.61247 l 0.829564,5.08808 c 0.084,0.518 0.430388,0.95549 0.914387,1.15449 0.483,0.20099 1.037159,0.13678 1.462158,-0.16822 l 4.18232,-3.01345 c 0.412999,0.131 0.8285,0.25956 1.2465,0.37956 l 1.804335,4.82497 c 0.183,0.49 0.607857,0.85321 1.122857,0.95321 0.514,0.104 1.041898,-0.0674 1.398898,-0.45144 l 3.523845,-3.77688 c 0.425,0.049 0.853006,0.09 1.281006,0.12795 l 2.72016,4.39366 c 0.274,0.44301 0.759882,0.71599 1.283882,0.71599 0.524,0 1.011756,-0.27199 1.286756,-0.71599 l 2.720161,-4.39366 c 0.428,-0.038 0.854568,-0.079 1.279568,-0.12795 l 3.522407,3.77688 c 0.357,0.38396 0.887332,0.55544 1.400332,0.45144 0.515,-0.101 0.93842,-0.46321 1.12142,-0.95321 l 1.80434,-4.82497 c 0.418,-0.12 0.8335,-0.24856 1.2465,-0.37956 l 4.18376,3.01345 c 0.425,0.305 0.97772,0.36921 1.46072,0.16822 0.484,-0.199 0.83039,-0.63749 0.91439,-1.15449 l 0.82956,-5.08808 c 0.384,-0.199 0.76398,-0.40546 1.14298,-0.61247 l 4.69415,2.13788 c 0.477,0.21801 1.03291,0.17455 1.46791,-0.11645 0.436,-0.292 0.68898,-0.7872 0.66998,-1.3112 l -0.17972,-5.16715 c 0.334,-0.267 0.66602,-0.53575 0.99202,-0.81375 l 5.03058,1.18468 c 0.51099,0.12 1.04715,-0.0281 1.41614,-0.40113 0.37201,-0.371 0.52257,-0.90471 0.40257,-1.4147 l -1.18468,-5.03202 c 0.276,-0.32699 0.54774,-0.65602 0.81375,-0.99202 l 5.16571,0.17972 c 0.521,0.021 1.01877,-0.23298 1.30977,-0.66998 0.292,-0.436 0.33689,-0.99091 0.11788,-1.46791 l -2.13788,-4.69415 c 0.209,-0.379 0.41303,-0.75842 0.61104,-1.14442 l 5.09095,-0.82813 c 0.518,-0.083 0.95305,-0.42939 1.15305,-0.91439 0.2,-0.483 0.13735,-1.03472 -0.16965,-1.46072 l -3.01058,-4.18375 c 0.12995,-0.413 0.25712,-0.8285 0.37812,-1.2465 l 4.82641,-1.80434 c 0.49101,-0.184 0.85321,-0.60642 0.95321,-1.12142 0.104,-0.514 -0.0674,-1.043328 -0.45144,-1.400328 l -3.77689,-3.52385 c 0.046,-0.425 0.0881,-0.85257 0.12508,-1.27957 l 4.39367,-2.72016 c 0.445,-0.274 0.71598,-0.76132 0.71598,-1.28532 0,-0.524 -0.26955,-1.01032 -0.71455,-1.28532 l -4.39366,-2.72016 c -0.037,-0.428 -0.0791,-0.85456 -0.12508,-1.27956 l 3.77545,-3.522411 c 0.384,-0.358 0.55688,-0.887336 0.45288,-1.400336 -0.10101,-0.515 -0.46221,-0.939857 -0.95321,-1.122857 l -4.82785,-1.804335 c -0.121,-0.418 -0.24817,-0.833501 -0.37812,-1.2465 l 3.01201,-4.18232 c 0.30701,-0.424999 0.36966,-0.977158 0.16965,-1.462158 -0.2,-0.483 -0.63748,-0.829392 -1.15448,-0.914387 l -5.08952,-0.828125 c -0.198,-0.386001 -0.40447,-0.765986 -0.61247,-1.142986 l 2.13933,-4.695583 c 0.219,-0.478001 0.1741,-1.03391 -0.1179,-1.46791 -0.291,-0.436 -0.78376,-0.689976 -1.30976,-0.669976 l -5.16571,0.179715 c -0.267,-0.334 -0.53963,-0.665591 -0.81663,-0.990587 l 1.18755,-5.03201 c 0.12001,-0.511 -0.032,-1.045151 -0.404,-1.416151 -0.36899,-0.37 -0.9037,-0.523998 -1.4147,-0.403998 l -5.03202,1.186116 c -0.326,-0.276 -0.65702,-0.548185 -0.99202,-0.815185 l 0.18115,-5.165717 c 0.02,-0.523001 -0.23541,-1.021199 -0.67141,-1.311198 -0.437,-0.292 -0.98947,-0.334893 -1.46648,-0.117893 l -4.69414,2.139323 c -0.379,-0.208 -0.75898,-0.413468 -1.14299,-0.612468 L 111.346,43.208279 c -0.084,-0.516 -0.43039,-0.954486 -0.91439,-1.154486 -0.483,-0.201 -1.03715,-0.13635 -1.46215,0.16965 l -4.1852,3.012017 c -0.412,-0.131 -0.82562,-0.258119 -1.24362,-0.378119 l -1.80434,-4.827854 c -0.183,-0.492 -0.60786,-0.852644 -1.12286,-0.954644 -0.514,-0.101 -1.043332,0.06944 -1.400332,0.451443 l -3.520969,3.779758 c -0.425,-0.047 -0.854006,-0.09008 -1.281006,-0.125081 L 91.69241,38.785862 c -0.275,-0.445 -0.762757,-0.715983 -1.286757,-0.715983 z m -0.09489,9.256022 c 0.795125,0.0185 1.583204,0.340833 2.176703,0.961832 1.185001,1.245 1.140923,3.213852 -0.102078,4.400852 -1.239999,1.188 -3.2081,1.141922 -4.3951,-0.102078 -1.184001,-1.243 -1.138485,-3.211414 0.103515,-4.399413 0.62,-0.594001 1.421835,-0.879693 2.21696,-0.861193 z m 7.142578,5.122585 c 11.220999,2.089001 20.720209,9.074254 26.195209,18.657254 l -3.66618,8.279812 c -0.633,1.433 0.013,3.10882 1.44203,3.74382 l 7.05775,3.13566 c 0.20964,2.31305 0.23936,4.48871 0.082,6.64225 -0.53441,7.169188 -3.1022,14.024218 -7.3266,19.818928 -1.08101,1.469 -2.26841,2.85888 -3.54541,4.15788 l -6.57469,-1.41184 c -0.47499,-0.10177 -0.943,-0.0664 -1.37877,0.0604 v 0.0489 h -0.16533 c -0.89265,0.31982 -1.60684,1.07267 -1.82015,2.07031 l -1.55993,7.2806 c -4.814,2.185 -10.160443,3.39876 -15.790443,3.39876 -5.759,0 -11.221121,-1.2746 -16.121121,-3.55259 l -1.558485,-7.27917 c -0.328,-1.532 -1.834258,-2.50858 -3.364258,-2.17958 l -6.426595,1.38021 c -1.193,-1.228 -2.304002,-2.53678 -3.324001,-3.91778 v 0 c -2.706434,-3.68321 -4.764627,-7.82159 -6.012581,-12.21913 v 0 C 52.646785,97.227182 52.13794,93.705412 52.13794,90.066412 c 0,-1.389 0.07453,-2.76143 0.218533,-4.11043 l 6.695448,-2.97464 c 1.377719,-0.61178 2.015994,-2.188167 1.493788,-3.584228 -1.175393,-2.684919 -2.486645,-5.689342 -3.561225,-8.138915 1.407855,-2.411813 3.004614,-4.664762 4.912679,-6.718453 v 0 c 5.506,-6.144999 12.969044,-10.498573 21.409044,-12.082573 l 4.78616,5.021946 c 1.082,1.132995 2.873479,1.175009 4.005479,0.09201 z m -44.34638,23.013537 c 1.211062,-0.02081 2.373562,0.671341 2.895562,1.850342 0.696,1.571 -0.01105,3.412557 -1.580051,4.107557 -1.569,0.697 -3.405806,-0.01237 -4.101807,-1.584364 -0.695999,-1.572 0.01249,-3.40912 1.581489,-4.10612 0.3925,-0.174 0.80112,-0.260477 1.204807,-0.267415 z m 74.262399,0.15096 c 0.40362,0.007 0.81256,0.09316 1.20481,0.267415 1.569,0.696001 2.27605,2.536562 1.58005,4.107558 -0.695,1.572 -2.53037,2.281366 -4.10037,1.584364 -1.567,-0.696 -2.27505,-2.535995 -1.58005,-4.108995 0.52125,-1.178251 1.68469,-1.871342 2.89556,-1.850342 z M 67.186524,119.26063 c 1.44544,-0.0127 2.750212,0.99051 3.065212,2.46138 0.359,1.67995 -0.70961,3.33637 -2.38661,3.69637 -1.677996,0.362 -3.329619,-0.70849 -3.690619,-2.38948 -0.359,-1.68401 0.70861,-3.3373 2.38661,-3.69925 0.20975,-0.0449 0.418915,-0.0672 0.625407,-0.069 z m 46.103276,0.15096 c 0.20639,0.002 0.41578,0.0252 0.62541,0.0705 1.67799,0.35899 2.7466,2.01637 2.3866,3.69637 -0.36,1.67999 -2.01362,2.74992 -3.69062,2.39092 -1.67799,-0.362 -2.74517,-2.01624 -2.38517,-3.69924 0.31412,-1.47088 1.61901,-2.47323 3.06378,-2.4585 z"
     id="path3"
     inkscape:connector-curvature="0"
     sodipodi:nodetypes="scccccccccccccccccccccccccccccccccccccccscccccccccccccccccccccccccccccccccccccccscccccccccccccccccccccccccccccccccccccccscccccccccccccccccccccccccccccccccccccccsccccccccccccccccccccsccccccccscccccccccccccscccccccccccccccccccccc"
     inkscape:export-xdpi="345.69"
     inkscape:export-ydpi="345.69" /><path
     style="fill:#999999;fill-opacity:0.80288463;stroke-width:0.24905683"
     id="path825-7"
     sodipodi:type="arc"
     sodipodi:cx="69.791664"
     sodipodi:cy="92.059029"
     sodipodi:rx="9.9963169"
     sodipodi:ry="9.9043026"
     sodipodi:start="2.3972097"
     sodipodi:end="2.3510981"
     sodipodi:open="true"
     d="m 62.439312,98.769373 a 9.9963169,9.9043026 0 0 1 0.495361,-13.917181 9.9963169,9.9043026 0 0 1 14.051253,0.330337 9.9963169,9.9043026 0 0 1 -0.171405,13.924796 9.9963169,9.9043026 0 0 1 -14.055205,-0.0093" /><path
     style="fill:#999999;fill-opacity:0.80288463;stroke-width:0.16268779"
     id="path825-7-9"
     sodipodi:type="arc"
     sodipodi:cx="76.738716"
     sodipodi:cy="76.186623"
     sodipodi:rx="6.5457959"
     sodipodi:ry="6.4537816"
     sodipodi:start="2.3972097"
     sodipodi:end="2.3510981"
     sodipodi:open="true"
     d="m 71.924243,80.559176 a 6.5457959,6.4537816 0 0 1 0.324373,-9.068628 6.5457959,6.4537816 0 0 1 9.201052,0.215251 6.5457959,6.4537816 0 0 1 -0.112239,9.073592 6.5457959,6.4537816 0 0 1 -9.203641,-0.0061" /><path
     style="fill:#999999;fill-opacity:0.80288463;stroke-width:0.12353852"
     id="path825-7-9-7"
     sodipodi:type="arc"
     sodipodi:cx="87.366318"
     sodipodi:cy="68.871529"
     sodipodi:rx="4.9355536"
     sodipodi:ry="4.9355536"
     sodipodi:start="2.3972097"
     sodipodi:end="2.3510981"
     sodipodi:open="true"
     d="m 83.736188,72.215455 a 4.9355536,4.9355536 0 0 1 0.244578,-6.935267 4.9355536,4.9355536 0 0 1 6.937627,0.164614 4.9355536,4.9355536 0 0 1 -0.08463,6.939063 4.9355536,4.9355536 0 0 1 -6.939577,-0.0046" /><path
     style="fill:#999999;fill-opacity:0.80288463;stroke-width:0.05905066"
     id="path825-7-9-7-1"
     sodipodi:type="arc"
     sodipodi:cx="95.003471"
     sodipodi:cy="71.723961"
     sodipodi:rx="2.3591647"
     sodipodi:ry="2.3591647"
     sodipodi:start="2.3972097"
     sodipodi:end="2.3510981"
     sodipodi:open="true"
     d="m 93.268291,73.322338 a 2.3591647,2.3591647 0 0 1 0.116907,-3.315016 2.3591647,2.3591647 0 0 1 3.316144,0.07868 2.3591647,2.3591647 0 0 1 -0.04045,3.316831 2.3591647,2.3591647 0 0 1 -3.317076,-0.0022" /><path
     style="fill:#999999;fill-opacity:0.80288463;stroke-width:0.09129459"
     id="path825-7-9-7-1-7"
     sodipodi:type="arc"
     sodipodi:cx="94.543404"
     sodipodi:cy="61.694443"
     sodipodi:rx="3.6473591"
     sodipodi:ry="3.6473591"
     sodipodi:start="2.3972097"
     sodipodi:end="2.3510981"
     sodipodi:open="true"
     d="m 91.860749,64.165595 a 3.6473591,3.6473591 0 0 1 0.180742,-5.125142 3.6473591,3.6473591 0 0 1 5.126885,0.121649 3.6473591,3.6473591 0 0 1 -0.06254,5.127947 3.6473591,3.6473591 0 0 1 -5.128326,-0.0034" /><path
     style="fill:#999999;fill-opacity:0.80288463;stroke-width:0.25443286"
     d="m 78.264133,101.45019 c -0.702902,-0.0182 -1.373347,0.0299 -2.001302,0.14378 -5.153295,0.93471 -6.44111,6.00905 -2.888373,11.38096 3.217525,4.18253 9.696773,7.7973 14.267903,8.33877 4.571131,0.54147 9.311314,0.54565 12.567089,-1.0179 5.22229,-2.50987 3.14788,-8.17524 -0.15959,-10.66356 -3.307475,-2.48832 -7.32919,-0.9606 -10.903647,-2.57207 -4.078024,-1.8385 -7.184579,-5.51016 -10.88208,-5.60998 z"
     id="path825-7-97"
     inkscape:connector-curvature="0"
     sodipodi:nodetypes="ccczczsc" /></svg>